<svg xmlns="http://www.w3.org/2000/svg" xmlns:html="http://www.w3.org/1999/xhtml" xmlns:xlink="http://www.w3.org/1999/xlink" version="1.1" class="blocklySvg" width="100%" height="100%">
  <style>
    .blocklyFieldRect { fill: transparent; }
    .blocklyMainBackground { fill: #fddde6; }
    .blocklyPathDark { stroke: #ccc; fill: transparent; }
    .blocklyPathLight { stroke: transparent; fill: transparent; }
  </style>
  <g class="blocklyWorkspace">
    <rect height="100%" width="100%" class="blocklyMainBackground">
    </rect>
    <g class="blocklyBlockCanvas" transform="translate(418.28910064697266,209) scale(1)">
      <g class="blocklyCursor">
	<g width="100" height="5">
	  <rect width="100" height="5" style="display: none">
	    <animate attributeType="XML" attributeName="fill" dur="1s" values="#cc0a0a;transparent;transparent;" repeatCount="indefinite">
	    </animate>
	  </rect>
	  <rect class="blocklyVerticalMarker" rx="10" ry="10" style="display: none">
	  </rect>
	  <path transform="" style="display: none">
	    <animate attributeType="XML" attributeName="fill" dur="1s" values="#cc0a0a;transparent;transparent;" repeatCount="indefinite">
	    </animate>
	  </path>
	  <path transform="" style="display: none" fill="none" stroke-width="4">
	    <animate attributeType="XML" attributeName="stroke" dur="1s" values="#cc0a0a;transparent;transparent;" repeatCount="indefinite">
	    </animate>
	  </path>
	</g>
      </g>
      <g data-id="+`*Ji@6o6~$$^r3V4uk:" class="blocklyDraggable" transform="translate(0,0)">
	<path class="blocklyPathDark" transform="translate(1,1)" fill="#c29ac2" d=" m 0,0  m 0,8 a 8 8 0 0,1 8,-8  h 7  l 6,4  3,0  6,-4  h 114.85261535644531  v 5  H 144.8526153564453  V 5  H 144.8526153564453  V 21  H 144.8526153564453  V 21  V 25  h -115.35261535644531  l -6,4  -3,0  -6,-4  h -14.5  H 0 z
										   ">
	</path>
	<path class="blocklyPath" stroke="none" fill="#f2c1f2" d=" m 0,0  m 0,8 a 8 8 0 0,1 8,-8  h 7  l 6,4  3,0  6,-4  h 114.85261535644531  v 5  H 144.8526153564453  V 5  H 144.8526153564453  V 21  H 144.8526153564453  V 21  V 25  h -115.35261535644531  l -6,4  -3,0  -6,-4  h -14.5  H 0 z
								  ">
	</path>
	<path class="blocklyPathLight" stroke="#f6d4f6" d=" m 0,0  m 0.5,8 a 7.5 7.5 0 0,1 8,-7.5  H 14.5  h 0.5  l 6,4  3,0  6,-4  H 144.3526153564453  H 144.3526153564453  M 0.5,24.5  V 8 
							   ">
	</path>
	<g data-id=".sOq=VN1Z%{Xq+3E5:e$" class="blocklyDraggable" transform="translate(0,26)">
	  <path class="blocklyPathDark" transform="translate(1,1)" fill="#c29aae" d=" m 0,0  h 15  l 6,4  3,0  6,-4  h 38.156951904296875  v 5  H 68.15695190429688  V 5  H 68.15695190429688  c 0,10  -8,-8  -8,7.5  s 8,-2.5  8,7.5  v 372  H 68.15695190429688  V 392  V 396  h -38.656951904296875  l -6,4  -3,0  -6,-4  h -14.5  H 0 z
										     ">
	  </path>
	  <path class="blocklyPath" stroke="none" fill="#f2c1da" d=" m 0,0  h 15  l 6,4  3,0  6,-4  h 38.156951904296875  v 5  H 68.15695190429688  V 5  H 68.15695190429688  c 0,10  -8,-8  -8,7.5  s 8,-2.5  8,7.5  v 372  H 68.15695190429688  V 392  V 396  h -38.656951904296875  l -6,4  -3,0  -6,-4  h -14.5  H 0 z
								    ">
	  </path>
	  <path class="blocklyPathLight" stroke="#f6d4e5" d=" m 0,0  m 0.5,0.5  H 14.5  h 0.5  l 6,4  3,0  6,-4  H 67.65695190429688  H 67.65695190429688  M 68.15695190429688,5  m -5,14.3  l 3.68,-2.1  M 0.5,395.5  V 0.5 
							     ">
	  </path>
	  <g data-id=",%JnyI[_E*!pY7{xzsy}" style="display: block;" class="blocklyDraggable" transform="translate(61.156951904296875,0)">
	    <path class="blocklyPathDark" transform="translate(1,1)" fill="#9ac2c2" d=" m 8,0  h 42.65625  v 5  H 50.65625  V 5  H 50.65625  V 21  H 50.65625  V 31  H 50.65625  c 0,10  -8,-8  -8,7.5  s 8,-2.5  8,7.5  v 1  H 50.65625  V 57  H 50.65625  c 0,10  -8,-8  -8,7.5  s 8,-2.5  8,7.5  v 320  H 50.65625  V 392  V 396  h -42.65625  H 8  V 20  c 0,-10  -8,8  -8,-7.5  s 8,2.5  8,-7.5 z
										       ">
	    </path>
	    <path class="blocklyPath" stroke="none" fill="#c1f2f2" d=" m 8,0  h 42.65625  v 5  H 50.65625  V 5  H 50.65625  V 21  H 50.65625  V 31  H 50.65625  c 0,10  -8,-8  -8,7.5  s 8,-2.5  8,7.5  v 1  H 50.65625  V 57  H 50.65625  c 0,10  -8,-8  -8,7.5  s 8,-2.5  8,7.5  v 320  H 50.65625  V 392  V 396  h -42.65625  H 8  V 20  c 0,-10  -8,8  -8,-7.5  s 8,2.5  8,-7.5 z
								      ">
	    </path>
	    <path class="blocklyPathLight" stroke="#d4f6f6" d=" m 8,0  m 0.5,0.5  H 50.15625  H 50.15625  M 50.65625,31  m -5,14.3  l 3.68,-2.1  M 50.65625,57  m -5,14.3  l 3.68,-2.1  M 8.5,395.5  M 8.5,395.5  V 20  v -1.5  m -7.36,-0.5  q -1.52,-5.5  0,-11  m 7.36,1  V 0.5 
							       ">
	    </path>
	    <g data-id="vs?sILgbd$Q3RF*CiCUY" class="blocklyDraggable" style="display: block;" transform="translate(43.65625,26)">
	      <path class="blocklyPathDark" transform="translate(1,1)" fill="#c29aae" d=" m 8,0  h 40.38134765625  v 5  H 48.38134765625  V 5  H 48.38134765625  V 21  H 48.38134765625  V 21  V 25  h -40.38134765625  H 8  V 20  c 0,-10  -8,8  -8,-7.5  s 8,2.5  8,-7.5 z
											 ">
	      </path>
	      <path class="blocklyPath" stroke="none" fill="#f2c1da" d=" m 8,0  h 40.38134765625  v 5  H 48.38134765625  V 5  H 48.38134765625  V 21  H 48.38134765625  V 21  V 25  h -40.38134765625  H 8  V 20  c 0,-10  -8,8  -8,-7.5  s 8,2.5  8,-7.5 z
									">
	      </path>
	      <path class="blocklyPathLight" stroke="#f6d4e5" d=" m 8,0  m 0.5,0.5  H 47.88134765625  H 47.88134765625  M 8.5,24.5  M 8.5,24.5  V 20  v -1.5  m -7.36,-0.5  q -1.52,-5.5  0,-11  m 7.36,1  V 0.5 
								 ">
	      </path>
	      <g class="blocklyEditableText" transform="translate(13,5)" style="cursor: default;">
		<rect rx="4" ry="4" x="0" y="0" height="16" width="30.38134765625" class="blocklyFieldRect blocklyDropdownRect" stroke="#f6d4e5" fill="transparent">
		</rect>
		<text class="blocklyText blocklyDropdownText" text-anchor="start" x="5" y="13">tr<tspan style="fill: rgb(242, 193, 218);"> ▾</tspan>
		</text>
		<image style="display: none;">
		</image>
	      </g>
	    </g>
	    <g data-id="g$y594Xth~0!iI9D1-+z" style="display: block;" class="blocklyDraggable" transform="translate(43.65625,52)">
	      <path class="blocklyPathDark" transform="translate(1,1)" fill="#c29ac2" d=" m 8,0  h 46.58509826660156  v 5  H 54.58509826660156  V 5  H 54.58509826660156  V 21  H 54.58509826660156  V 31  H 54.58509826660156  c 0,10  -8,-8  -8,7.5  s 8,-2.5  8,7.5  v 242  H 54.58509826660156  V 298  H 54.58509826660156  c 0,10  -8,-8  -8,7.5  s 8,-2.5  8,7.5  v 1  H 54.58509826660156  V 324  H 54.58509826660156  c 0,10  -8,-8  -8,7.5  s 8,-2.5  8,7.5  v 1  H 54.58509826660156  V 340  V 344  h -46.58509826660156  H 8  V 20  c 0,-10  -8,8  -8,-7.5  s 8,2.5  8,-7.5 z
											 ">
	      </path>
	      <path class="blocklyPath" stroke="none" fill="#f2c1f2" d=" m 8,0  h 46.58509826660156  v 5  H 54.58509826660156  V 5  H 54.58509826660156  V 21  H 54.58509826660156  V 31  H 54.58509826660156  c 0,10  -8,-8  -8,7.5  s 8,-2.5  8,7.5  v 242  H 54.58509826660156  V 298  H 54.58509826660156  c 0,10  -8,-8  -8,7.5  s 8,-2.5  8,7.5  v 1  H 54.58509826660156  V 324  H 54.58509826660156  c 0,10  -8,-8  -8,7.5  s 8,-2.5  8,7.5  v 1  H 54.58509826660156  V 340  V 344  h -46.58509826660156  H 8  V 20  c 0,-10  -8,8  -8,-7.5  s 8,2.5  8,-7.5 z
									">
	      </path>
	      <path class="blocklyPathLight" stroke="#f6d4f6" d=" m 8,0  m 0.5,0.5  H 54.08509826660156  H 54.08509826660156  M 54.58509826660156,31  m -5,14.3  l 3.68,-2.1  M 54.58509826660156,298  m -5,14.3  l 3.68,-2.1  M 54.58509826660156,324  m -5,14.3  l 3.68,-2.1  M 8.5,343.5  M 8.5,343.5  V 20  v -1.5  m -7.36,-0.5  q -1.52,-5.5  0,-11  m 7.36,1  V 0.5 
								 ">
	      </path>
	      <g data-id="yJfpL%H3{!LbmD4F$lzk" style="display: block;" class="blocklyDraggable" transform="translate(47.58509826660156,26)">
		<path class="blocklyPathDark" transform="translate(1,1)" fill="#a79ac2" d=" m 8,0  h 36.15110778808594  v 5  H 44.15110778808594  V 5  H 44.15110778808594  V 21  H 44.15110778808594  V 31  H 44.15110778808594  c 0,10  -8,-8  -8,7.5  s 8,-2.5  8,7.5  v 190  H 44.15110778808594  V 246  H 44.15110778808594  c 0,10  -8,-8  -8,7.5  s 8,-2.5  8,7.5  v 1  H 44.15110778808594  V 262  V 266  h -36.15110778808594  H 8  V 20  c 0,-10  -8,8  -8,-7.5  s 8,2.5  8,-7.5 z
											   ">
		</path>
		<path class="blocklyPath" stroke="none" fill="#d1c1f2" d=" m 8,0  h 36.15110778808594  v 5  H 44.15110778808594  V 5  H 44.15110778808594  V 21  H 44.15110778808594  V 31  H 44.15110778808594  c 0,10  -8,-8  -8,7.5  s 8,-2.5  8,7.5  v 190  H 44.15110778808594  V 246  H 44.15110778808594  c 0,10  -8,-8  -8,7.5  s 8,-2.5  8,7.5  v 1  H 44.15110778808594  V 262  V 266  h -36.15110778808594  H 8  V 20  c 0,-10  -8,8  -8,-7.5  s 8,2.5  8,-7.5 z
									  ">
		</path>
		<path class="blocklyPathLight" stroke="#dfd4f6" d=" m 8,0  m 0.5,0.5  H 43.65110778808594  H 43.65110778808594  M 44.15110778808594,31  m -5,14.3  l 3.68,-2.1  M 44.15110778808594,246  m -5,14.3  l 3.68,-2.1  M 8.5,265.5  M 8.5,265.5  V 20  v -1.5  m -7.36,-0.5  q -1.52,-5.5  0,-11  m 7.36,1  V 0.5 
								   ">
		</path>
		<g data-id="{sT*ZR]Ww]jTc-rA}Bna" style="display: block;" class="blocklyDraggable" transform="translate(37.15110778808594,26)">
		  <path class="blocklyPathDark" transform="translate(1,1)" fill="#9ac2c2" d=" m 8,0  h 42.65625  v 5  H 50.65625  V 5  H 50.65625  V 21  H 50.65625  V 31  H 50.65625  c 0,10  -8,-8  -8,7.5  s 8,-2.5  8,7.5  v 164  H 50.65625  V 210  V 214  h -42.65625  H 8  V 20  c 0,-10  -8,8  -8,-7.5  s 8,2.5  8,-7.5 z
											     ">
		  </path>
		  <path class="blocklyPath" stroke="none" fill="#c1f2f2" d=" m 8,0  h 42.65625  v 5  H 50.65625  V 5  H 50.65625  V 21  H 50.65625  V 31  H 50.65625  c 0,10  -8,-8  -8,7.5  s 8,-2.5  8,7.5  v 164  H 50.65625  V 210  V 214  h -42.65625  H 8  V 20  c 0,-10  -8,8  -8,-7.5  s 8,2.5  8,-7.5 z
									    ">
		  </path>
		  <path class="blocklyPathLight" stroke="#d4f6f6" d=" m 8,0  m 0.5,0.5  H 50.15625  H 50.15625  M 50.65625,31  m -5,14.3  l 3.68,-2.1  M 8.5,213.5  M 8.5,213.5  V 20  v -1.5  m -7.36,-0.5  q -1.52,-5.5  0,-11  m 7.36,1  V 0.5 
								     ">
		  </path>
		  <g data-id="h]K)q=krQ0asLxS0lw`%" style="display: block;" class="blocklyDraggable" transform="translate(43.65625,26)">
		    <path class="blocklyPathDark" transform="translate(1,1)" fill="#9ac2ae" d=" m 8,0  h 43.0570068359375  v 5  H 51.0570068359375  V 5  H 51.0570068359375  V 21  H 51.0570068359375  V 31  H 51.0570068359375  c 0,10  -8,-8  -8,7.5  s 8,-2.5  8,7.5  v 23  H 51.0570068359375  V 79  H 51.0570068359375  c 0,10  -8,-8  -8,7.5  s 8,-2.5  8,7.5  v 12  H 51.0570068359375  V 116  H 51.0570068359375  c 0,10  -8,-8  -8,7.5  s 8,-2.5  8,7.5  v 1  H 51.0570068359375  V 142  H 51.0570068359375  c 0,10  -8,-8  -8,7.5  s 8,-2.5  8,7.5  v 1  H 51.0570068359375  V 168  H 51.0570068359375  c 0,10  -8,-8  -8,7.5  s 8,-2.5  8,7.5  v 1  H 51.0570068359375  V 184  V 188  h -43.0570068359375  H 8  V 20  c 0,-10  -8,8  -8,-7.5  s 8,2.5  8,-7.5 z
											       ">
		    </path>
		    <path class="blocklyPath" stroke="none" fill="#c1f2da" d=" m 8,0  h 43.0570068359375  v 5  H 51.0570068359375  V 5  H 51.0570068359375  V 21  H 51.0570068359375  V 31  H 51.0570068359375  c 0,10  -8,-8  -8,7.5  s 8,-2.5  8,7.5  v 23  H 51.0570068359375  V 79  H 51.0570068359375  c 0,10  -8,-8  -8,7.5  s 8,-2.5  8,7.5  v 12  H 51.0570068359375  V 116  H 51.0570068359375  c 0,10  -8,-8  -8,7.5  s 8,-2.5  8,7.5  v 1  H 51.0570068359375  V 142  H 51.0570068359375  c 0,10  -8,-8  -8,7.5  s 8,-2.5  8,7.5  v 1  H 51.0570068359375  V 168  H 51.0570068359375  c 0,10  -8,-8  -8,7.5  s 8,-2.5  8,7.5  v 1  H 51.0570068359375  V 184  V 188  h -43.0570068359375  H 8  V 20  c 0,-10  -8,8  -8,-7.5  s 8,2.5  8,-7.5 z
									      ">
		    </path>
		    <path class="blocklyPathLight" stroke="#d4f6e5" d=" m 8,0  m 0.5,0.5  H 50.5570068359375  H 50.5570068359375  M 51.0570068359375,31  m -5,14.3  l 3.68,-2.1  M 51.0570068359375,79  m -5,14.3  l 3.68,-2.1  M 51.0570068359375,116  m -5,14.3  l 3.68,-2.1  M 51.0570068359375,142  m -5,14.3  l 3.68,-2.1  M 51.0570068359375,168  m -5,14.3  l 3.68,-2.1  M 8.5,187.5  M 8.5,187.5  V 20  v -1.5  m -7.36,-0.5  q -1.52,-5.5  0,-11  m 7.36,1  V 0.5 
								       ">
		    </path>
		    <g data-id="n/DIl{5zF.~={i@;%3EM" style="display: block;" class="blocklyDraggable" transform="translate(44.0570068359375,26)">
		      <path class="blocklyPathDark" transform="translate(1,1)" fill="#9ac2ae" d=" m 8,0  h 473.1591339111328  v 5  H 481.1591339111328  V 5  H 481.1591339111328  V 43  H 481.1591339111328  V 43  V 47  h -473.1591339111328  H 8  V 20  c 0,-10  -8,8  -8,-7.5  s 8,2.5  8,-7.5 z
												 M 56.865753173828125,5  v 5  c 0,10  -8,-8  -8,7.5  s 8,-2.5  8,7.5  v 18  h 196.06748962402344  v -38 z M 291.2135772705078,5  v 5  c 0,10  -8,-8  -8,7.5  s 8,-2.5  8,7.5  v 7  h 50.525299072265625  v -27 z M 376.2978973388672,5  v 5  c 0,10  -8,-8  -8,7.5  s 8,-2.5  8,7.5  v 7  h 30.151107788085938  v -27 z M 441.0080261230469,5  v 5  c 0,10  -8,-8  -8,7.5  s 8,-2.5  8,7.5  v 7  h 30.151107788085938  v -27 z">
		      </path>
		      <path class="blocklyPath" stroke="none" fill="#c1f2da" d=" m 8,0  h 473.1591339111328  v 5  H 481.1591339111328  V 5  H 481.1591339111328  V 43  H 481.1591339111328  V 43  V 47  h -473.1591339111328  H 8  V 20  c 0,-10  -8,8  -8,-7.5  s 8,2.5  8,-7.5 z
										M 56.865753173828125,5  v 5  c 0,10  -8,-8  -8,7.5  s 8,-2.5  8,7.5  v 18  h 196.06748962402344  v -38 z M 291.2135772705078,5  v 5  c 0,10  -8,-8  -8,7.5  s 8,-2.5  8,7.5  v 7  h 50.525299072265625  v -27 z M 376.2978973388672,5  v 5  c 0,10  -8,-8  -8,7.5  s 8,-2.5  8,7.5  v 7  h 30.151107788085938  v -27 z M 441.0080261230469,5  v 5  c 0,10  -8,-8  -8,7.5  s 8,-2.5  8,7.5  v 7  h 30.151107788085938  v -27 z">
		      </path>
		      <path class="blocklyPathLight" stroke="#d4f6e5" d=" m 8,0  m 0.5,0.5  H 480.6591339111328  H 480.6591339111328  M 8.5,46.5  M 8.5,46.5  V 20  v -1.5  m -7.36,-0.5  q -1.52,-5.5  0,-11  m 7.36,1  V 0.5 
									 M 253.43324279785156,5.5  v 38  h -196.06748962402344  M 56.865753173828125,10  m -5,14.3  l 3.68,-2.1  M 342.23887634277344,5.5  v 27  h -50.525299072265625  M 291.2135772705078,10  m -5,14.3  l 3.68,-2.1  M 406.9490051269531,5.5  v 27  h -30.151107788085938  M 376.2978973388672,10  m -5,14.3  l 3.68,-2.1  M 471.6591339111328,5.5  v 27  h -30.151107788085938  M 441.0080261230469,10  m -5,14.3  l 3.68,-2.1 ">
		      </path>
		      <g data-id="j{Dy8!`|qE,1kkX8KEUV" style="display: block;" class="blocklyDraggable" transform="translate(49.865753173828125,6)">
			<path class="blocklyPathDark" transform="translate(1,1)" fill="#9aaec2" d=" m 8,0  h 194.06748962402344  v 5  H 202.06748962402344  V 5  H 202.06748962402344  V 32  H 202.06748962402344  V 32  V 36  h -194.06748962402344  H 8  V 20  c 0,-10  -8,8  -8,-7.5  s 8,2.5  8,-7.5 z
												   M 68.68095397949219,5  v 5  c 0,10  -8,-8  -8,7.5  s 8,-2.5  8,7.5  v 7  h 58.67640686035156  v -27 z M 161.9163818359375,5  v 5  c 0,10  -8,-8  -8,7.5  s 8,-2.5  8,7.5  v 7  h 30.151107788085938  v -27 z">
			</path>
			<path class="blocklyPath" stroke="none" fill="#c1daf2" d=" m 8,0  h 194.06748962402344  v 5  H 202.06748962402344  V 5  H 202.06748962402344  V 32  H 202.06748962402344  V 32  V 36  h -194.06748962402344  H 8  V 20  c 0,-10  -8,8  -8,-7.5  s 8,2.5  8,-7.5 z
										  M 68.68095397949219,5  v 5  c 0,10  -8,-8  -8,7.5  s 8,-2.5  8,7.5  v 7  h 58.67640686035156  v -27 z M 161.9163818359375,5  v 5  c 0,10  -8,-8  -8,7.5  s 8,-2.5  8,7.5  v 7  h 30.151107788085938  v -27 z">
			</path>
			<path class="blocklyPathLight" stroke="#d4e5f6" d=" m 8,0  m 0.5,0.5  H 201.56748962402344  H 201.56748962402344  M 8.5,35.5  M 8.5,35.5  V 20  v -1.5  m -7.36,-0.5  q -1.52,-5.5  0,-11  m 7.36,1  V 0.5 
									   M 127.85736083984375,5.5  v 27  h -58.67640686035156  M 68.68095397949219,10  m -5,14.3  l 3.68,-2.1  M 192.56748962402344,5.5  v 27  h -30.151107788085938  M 161.9163818359375,10  m -5,14.3  l 3.68,-2.1 ">
			</path>
			<g data-id="gq@uMvq|=M[nixbg,_HA" class="blocklyDraggable" style="display: block;" transform="translate(61.68095397949219,6)">
			  <path class="blocklyPathDark" transform="translate(1,1)" fill="#9aa1c2" d=" m 8,0  h 56.67640686035156  v 5  H 64.67640686035156  V 5  H 64.67640686035156  V 21  H 64.67640686035156  V 21  V 25  h -56.67640686035156  H 8  V 20  c 0,-10  -8,8  -8,-7.5  s 8,2.5  8,-7.5 z
												     ">
			  </path>
			  <path class="blocklyPath" stroke="none" fill="#c1c9f2" d=" m 8,0  h 56.67640686035156  v 5  H 64.67640686035156  V 5  H 64.67640686035156  V 21  H 64.67640686035156  V 21  V 25  h -56.67640686035156  H 8  V 20  c 0,-10  -8,8  -8,-7.5  s 8,2.5  8,-7.5 z
										    ">
			  </path>
			  <path class="blocklyPathLight" stroke="#d4d9f6" d=" m 8,0  m 0.5,0.5  H 64.17640686035156  H 64.17640686035156  M 8.5,24.5  M 8.5,24.5  V 20  v -1.5  m -7.36,-0.5  q -1.52,-5.5  0,-11  m 7.36,1  V 0.5 
									     ">
			  </path>
			  <g class="blocklyEditableText" transform="translate(13,5)" style="cursor: text;">
			    <rect rx="4" ry="4" x="0" y="0" height="16" width="46.67640686035156" class="blocklyFieldRect">
			    </rect>
			    <text class="blocklyText" x="5" y="13">0.002</text>
			  </g>
			</g>
			<g data-id="EZBb4?iz8S|^53Ha/2WY" style="display: block;" transform="translate(154.9163818359375,6)">
			  <path class="blocklyPathDark" transform="translate(1,1)" fill="#e6e9fa" d=" m 8,0  h 28.151107788085938  v 5  H 36.15110778808594  V 5  H 36.15110778808594  V 21  H 36.15110778808594  V 21  V 25  h -28.151107788085938  H 8  V 20  c 0,-10  -8,8  -8,-7.5  s 8,2.5  8,-7.5 z
												     ">
			  </path>
			  <path class="blocklyPath" stroke="none" fill="#e6e9fa" d=" m 8,0  h 28.151107788085938  v 5  H 36.15110778808594  V 5  H 36.15110778808594  V 21  H 36.15110778808594  V 21  V 25  h -28.151107788085938  H 8  V 20  c 0,-10  -8,8  -8,-7.5  s 8,2.5  8,-7.5 z
										    ">
			  </path>
			  <path class="blocklyPathLight" stroke="#d4d9f6" style="display: none;" d=" m 8,0  m 0.5,0.5  H 35.65110778808594  H 35.65110778808594  M 8.5,24.5  M 8.5,24.5  V 20  v -1.5  m -7.36,-0.5  q -1.52,-5.5  0,-11  m 7.36,1  V 0.5 
												    ">
			  </path>
			  <g class="blocklyEditableText" style="cursor: text;" transform="translate(13,5)">
			    <rect rx="4" ry="4" x="0" y="0" height="16" width="18.151107788085938" class="blocklyFieldRect">
			    </rect>
			    <text class="blocklyText" x="5" y="13">0</text>
			  </g>
			</g>
			<g transform="translate(18,10)">
			  <text class="blocklyText" x="0" y="13">⍰𝒃</text>
			</g>
			<g transform="translate(44.12193298339844,10)">
			  <text class="blocklyText" x="0" y="13">×</text>
			</g>
			<g transform="translate(137.35736083984375,10)">
			  <text class="blocklyText" x="0" y="13">+</text>
			</g>
		      </g>
		      <g data-id="Gr4F{PI.I0uAU#3z([Ee" class="blocklyDraggable" style="display: block;" transform="translate(284.2135772705078,6)">
			<path class="blocklyPathDark" transform="translate(1,1)" fill="#9aa1c2" d=" m 8,0  h 48.525299072265625  v 5  H 56.525299072265625  V 5  H 56.525299072265625  V 21  H 56.525299072265625  V 21  V 25  h -48.525299072265625  H 8  V 20  c 0,-10  -8,8  -8,-7.5  s 8,2.5  8,-7.5 z
												   ">
			</path>
			<path class="blocklyPath" stroke="none" fill="#c1c9f2" d=" m 8,0  h 48.525299072265625  v 5  H 56.525299072265625  V 5  H 56.525299072265625  V 21  H 56.525299072265625  V 21  V 25  h -48.525299072265625  H 8  V 20  c 0,-10  -8,8  -8,-7.5  s 8,2.5  8,-7.5 z
										  ">
			</path>
			<path class="blocklyPathLight" stroke="#d4d9f6" d=" m 8,0  m 0.5,0.5  H 56.025299072265625  H 56.025299072265625  M 8.5,24.5  M 8.5,24.5  V 20  v -1.5  m -7.36,-0.5  q -1.52,-5.5  0,-11  m 7.36,1  V 0.5 
									   ">
			</path>
			<g class="blocklyEditableText" transform="translate(13,5)" style="cursor: text;">
			  <rect rx="4" ry="4" x="0" y="0" height="16" width="38.525299072265625" class="blocklyFieldRect">
			  </rect>
			  <text class="blocklyText" x="5" y="13">0.95</text>
			</g>
		      </g>
		      <g data-id="5jfSF.^[-vcPLnL~t.2f" style="display: block;" transform="translate(369.2978973388672,6)">
			<path class="blocklyPathDark" transform="translate(1,1)" fill="#e6e9fa" d=" m 8,0  h 28.151107788085938  v 5  H 36.15110778808594  V 5  H 36.15110778808594  V 21  H 36.15110778808594  V 21  V 25  h -28.151107788085938  H 8  V 20  c 0,-10  -8,8  -8,-7.5  s 8,2.5  8,-7.5 z
												   ">
			</path>
			<path class="blocklyPath" stroke="none" fill="#e6e9fa" d=" m 8,0  h 28.151107788085938  v 5  H 36.15110778808594  V 5  H 36.15110778808594  V 21  H 36.15110778808594  V 21  V 25  h -28.151107788085938  H 8  V 20  c 0,-10  -8,8  -8,-7.5  s 8,2.5  8,-7.5 z
										  ">
			</path>
			<path class="blocklyPathLight" stroke="#d4d9f6" d=" m 8,0  m 0.5,0.5  H 35.65110778808594  H 35.65110778808594  M 8.5,24.5  M 8.5,24.5  V 20  v -1.5  m -7.36,-0.5  q -1.52,-5.5  0,-11  m 7.36,1  V 0.5 
									   " style="display: none;">
			</path>
			<g class="blocklyEditableText" transform="translate(13,5)" style="cursor: text;">
			  <rect rx="4" ry="4" x="0" y="0" height="16" width="18.151107788085938" class="blocklyFieldRect">
			  </rect>
			  <text class="blocklyText" x="5" y="13">1</text>
			</g>
		      </g>
		      <g data-id="d$JlvFqxaZc|+4~XwAAk" style="display: block;" transform="translate(434.0080261230469,6)">
			<path class="blocklyPathDark" transform="translate(1,1)" fill="#e6e9fa" d=" m 8,0  h 28.151107788085938  v 5  H 36.15110778808594  V 5  H 36.15110778808594  V 21  H 36.15110778808594  V 21  V 25  h -28.151107788085938  H 8  V 20  c 0,-10  -8,8  -8,-7.5  s 8,2.5  8,-7.5 z
												   ">
			</path>
			<path class="blocklyPath" stroke="none" fill="#e6e9fa" d=" m 8,0  h 28.151107788085938  v 5  H 36.15110778808594  V 5  H 36.15110778808594  V 21  H 36.15110778808594  V 21  V 25  h -28.151107788085938  H 8  V 20  c 0,-10  -8,8  -8,-7.5  s 8,2.5  8,-7.5 z
										  ">
			</path>
			<path class="blocklyPathLight" stroke="#d4d9f6" d=" m 8,0  m 0.5,0.5  H 35.65110778808594  H 35.65110778808594  M 8.5,24.5  M 8.5,24.5  V 20  v -1.5  m -7.36,-0.5  q -1.52,-5.5  0,-11  m 7.36,1  V 0.5 
									   " style="display: none;">
			</path>
			<g class="blocklyEditableText" transform="translate(13,5)" style="cursor: text;">
			  <rect rx="4" ry="4" x="0" y="0" height="16" width="18.151107788085938" class="blocklyFieldRect">
			  </rect>
			  <text class="blocklyText" x="5" y="13">0</text>
			</g>
		      </g>
		      <g transform="translate(18,10)">
			<text class="blocklyText" x="0" y="13">⌽</text>
		      </g>
		      <g transform="translate(36.79377746582031,10)">
			<text class="blocklyText" x="0" y="13">∙</text>
		      </g>
		      <g transform="translate(262.93324279785156,10)">
			<text class="blocklyText" x="0" y="13">⊗</text>
		      </g>
		      <g transform="translate(351.73887634277344,10)">
			<text class="blocklyText" x="0" y="13">×</text>
		      </g>
		      <g transform="translate(416.4490051269531,10)">
			<text class="blocklyText" x="0" y="13">+</text>
		      </g>
		    </g>
		    <g data-id=".KDkt5T9/6j|d+)BUa^n" style="display: block;" class="blocklyDraggable" transform="translate(44.0570068359375,74)">
		      <path class="blocklyPathDark" transform="translate(1,1)" fill="#c2ae9a" d=" m 8,0  h 411.4431457519531  v 5  H 419.4431457519531  V 5  H 419.4431457519531  V 32  H 419.4431457519531  V 32  V 36  h -411.4431457519531  H 8  V 20  c 0,-10  -8,8  -8,-7.5  s 8,2.5  8,-7.5 z
												 M 74.73661804199219,5  v 5  c 0,10  -8,-8  -8,7.5  s 8,-2.5  8,7.5  v 7  h 38.302215576171875  v -27 z M 144.75677490234375,5  v 5  c 0,10  -8,-8  -8,7.5  s 8,-2.5  8,7.5  v 7  h 54.60443115234375  v -27 z M 237.64154052734375,5  v 5  c 0,10  -8,-8  -8,7.5  s 8,-2.5  8,7.5  v 7  h 42.38134765625  v -27 z M 314.5819091796875,5  v 5  c 0,10  -8,-8  -8,7.5  s 8,-2.5  8,7.5  v 7  h 30.151107788085938  v -27 z M 379.2920379638672,5  v 5  c 0,10  -8,-8  -8,7.5  s 8,-2.5  8,7.5  v 7  h 30.151107788085938  v -27 z">
		      </path>
		      <path class="blocklyPath" stroke="none" fill="#f2dac1" d=" m 8,0  h 411.4431457519531  v 5  H 419.4431457519531  V 5  H 419.4431457519531  V 32  H 419.4431457519531  V 32  V 36  h -411.4431457519531  H 8  V 20  c 0,-10  -8,8  -8,-7.5  s 8,2.5  8,-7.5 z
										M 74.73661804199219,5  v 5  c 0,10  -8,-8  -8,7.5  s 8,-2.5  8,7.5  v 7  h 38.302215576171875  v -27 z M 144.75677490234375,5  v 5  c 0,10  -8,-8  -8,7.5  s 8,-2.5  8,7.5  v 7  h 54.60443115234375  v -27 z M 237.64154052734375,5  v 5  c 0,10  -8,-8  -8,7.5  s 8,-2.5  8,7.5  v 7  h 42.38134765625  v -27 z M 314.5819091796875,5  v 5  c 0,10  -8,-8  -8,7.5  s 8,-2.5  8,7.5  v 7  h 30.151107788085938  v -27 z M 379.2920379638672,5  v 5  c 0,10  -8,-8  -8,7.5  s 8,-2.5  8,7.5  v 7  h 30.151107788085938  v -27 z">
		      </path>
		      <path class="blocklyPathLight" stroke="#f6e5d4" d=" m 8,0  m 0.5,0.5  H 418.9431457519531  H 418.9431457519531  M 8.5,35.5  M 8.5,35.5  V 20  v -1.5  m -7.36,-0.5  q -1.52,-5.5  0,-11  m 7.36,1  V 0.5 
									 M 113.53883361816406,5.5  v 27  h -38.302215576171875  M 74.73661804199219,10  m -5,14.3  l 3.68,-2.1  M 199.8612060546875,5.5  v 27  h -54.60443115234375  M 144.75677490234375,10  m -5,14.3  l 3.68,-2.1  M 280.52288818359375,5.5  v 27  h -42.38134765625  M 237.64154052734375,10  m -5,14.3  l 3.68,-2.1  M 345.23301696777344,5.5  v 27  h -30.151107788085938  M 314.5819091796875,10  m -5,14.3  l 3.68,-2.1  M 409.9431457519531,5.5  v 27  h -30.151107788085938  M 379.2920379638672,10  m -5,14.3  l 3.68,-2.1 ">
		      </path>
		      <g data-id="AEzlz96gp,*0Raa]ut/*" class="blocklyDraggable" style="display: block;" transform="translate(67.73661804199219,6)">
			<path class="blocklyPathDark" transform="translate(1,1)" fill="#9aa1c2" d=" m 8,0  h 36.302215576171875  v 5  H 44.302215576171875  V 5  H 44.302215576171875  V 21  H 44.302215576171875  V 21  V 25  h -36.302215576171875  H 8  V 20  c 0,-10  -8,8  -8,-7.5  s 8,2.5  8,-7.5 z
												   ">
			</path>
			<path class="blocklyPath" stroke="none" fill="#c1c9f2" d=" m 8,0  h 36.302215576171875  v 5  H 44.302215576171875  V 5  H 44.302215576171875  V 21  H 44.302215576171875  V 21  V 25  h -36.302215576171875  H 8  V 20  c 0,-10  -8,8  -8,-7.5  s 8,2.5  8,-7.5 z
										  ">
			</path>
			<path class="blocklyPathLight" stroke="#d4d9f6" d=" m 8,0  m 0.5,0.5  H 43.802215576171875  H 43.802215576171875  M 8.5,24.5  M 8.5,24.5  V 20  v -1.5  m -7.36,-0.5  q -1.52,-5.5  0,-11  m 7.36,1  V 0.5 
									   ">
			</path>
			<g class="blocklyEditableText" transform="translate(13,5)" style="cursor: text;">
			  <rect rx="4" ry="4" x="0" y="0" height="16" width="26.302215576171875" class="blocklyFieldRect">
			  </rect>
			  <text class="blocklyText" x="5" y="13">0</text>
			</g>
		      </g>
		      <g data-id="V?~wPb49FJkmPiy!iEhz" class="blocklyDraggable" style="display: block;" transform="translate(137.75677490234375,6)">
			<path class="blocklyPathDark" transform="translate(1,1)" fill="#9aa1c2" d=" m 8,0  h 52.60443115234375  v 5  H 60.60443115234375  V 5  H 60.60443115234375  V 21  H 60.60443115234375  V 21  V 25  h -52.60443115234375  H 8  V 20  c 0,-10  -8,8  -8,-7.5  s 8,2.5  8,-7.5 z
												   ">
			</path>
			<path class="blocklyPath" stroke="none" fill="#c1c9f2" d=" m 8,0  h 52.60443115234375  v 5  H 60.60443115234375  V 5  H 60.60443115234375  V 21  H 60.60443115234375  V 21  V 25  h -52.60443115234375  H 8  V 20  c 0,-10  -8,8  -8,-7.5  s 8,2.5  8,-7.5 z
										  ">
			</path>
			<path class="blocklyPathLight" stroke="#d4d9f6" d=" m 8,0  m 0.5,0.5  H 60.10443115234375  H 60.10443115234375  M 8.5,24.5  M 8.5,24.5  V 20  v -1.5  m -7.36,-0.5  q -1.52,-5.5  0,-11  m 7.36,1  V 0.5 
									   ">
			</path>
			<g class="blocklyEditableText" transform="translate(13,5)" style="cursor: text;">
			  <rect rx="4" ry="4" x="0" y="0" height="16" width="42.60443115234375" class="blocklyFieldRect">
			  </rect>
			  <text class="blocklyText" x="5" y="13">2000</text>
			</g>
		      </g>
		      <g data-id="d(!c1?j916]pT]/X0@%r" class="blocklyDraggable" style="display: block;" transform="translate(230.64154052734375,6)">
			<path class="blocklyPathDark" transform="translate(1,1)" fill="#c29aae" d=" m 8,0  h 40.38134765625  v 5  H 48.38134765625  V 5  H 48.38134765625  V 21  H 48.38134765625  V 21  V 25  h -40.38134765625  H 8  V 20  c 0,-10  -8,8  -8,-7.5  s 8,2.5  8,-7.5 z
												   ">
			</path>
			<path class="blocklyPath" stroke="none" fill="#f2c1da" d=" m 8,0  h 40.38134765625  v 5  H 48.38134765625  V 5  H 48.38134765625  V 21  H 48.38134765625  V 21  V 25  h -40.38134765625  H 8  V 20  c 0,-10  -8,8  -8,-7.5  s 8,2.5  8,-7.5 z
										  ">
			</path>
			<path class="blocklyPathLight" stroke="#f6d4e5" d=" m 8,0  m 0.5,0.5  H 47.88134765625  H 47.88134765625  M 8.5,24.5  M 8.5,24.5  V 20  v -1.5  m -7.36,-0.5  q -1.52,-5.5  0,-11  m 7.36,1  V 0.5 
									   ">
			</path>
			<g class="blocklyEditableText" transform="translate(13,5)" style="cursor: default;">
			  <rect rx="4" ry="4" x="0" y="0" height="16" width="30.38134765625" class="blocklyFieldRect blocklyDropdownRect" stroke="#f6d4e5" fill="transparent">
			  </rect>
			  <text class="blocklyText blocklyDropdownText" text-anchor="start" x="5" y="13">tr<tspan style="fill: rgb(242, 193, 218);"> ▾</tspan>
			  </text>
			  <image style="display: none;">
			  </image>
			</g>
		      </g>
		      <g data-id="%;]AaBA6i0rRl+[82wiG" style="display: block;" transform="translate(307.5819091796875,6)">
			<path class="blocklyPathDark" transform="translate(1,1)" fill="#e6e9fa" d=" m 8,0  h 28.151107788085938  v 5  H 36.15110778808594  V 5  H 36.15110778808594  V 21  H 36.15110778808594  V 21  V 25  h -28.151107788085938  H 8  V 20  c 0,-10  -8,8  -8,-7.5  s 8,2.5  8,-7.5 z
												   ">
			</path>
			<path class="blocklyPath" stroke="none" fill="#e6e9fa" d=" m 8,0  h 28.151107788085938  v 5  H 36.15110778808594  V 5  H 36.15110778808594  V 21  H 36.15110778808594  V 21  V 25  h -28.151107788085938  H 8  V 20  c 0,-10  -8,8  -8,-7.5  s 8,2.5  8,-7.5 z
										  ">
			</path>
			<path class="blocklyPathLight" stroke="#d4d9f6" d=" m 8,0  m 0.5,0.5  H 35.65110778808594  H 35.65110778808594  M 8.5,24.5  M 8.5,24.5  V 20  v -1.5  m -7.36,-0.5  q -1.52,-5.5  0,-11  m 7.36,1  V 0.5 
									   " style="display: none;">
			</path>
			<g class="blocklyEditableText" transform="translate(13,5)" style="cursor: text;">
			  <rect rx="4" ry="4" x="0" y="0" height="16" width="18.151107788085938" class="blocklyFieldRect">
			  </rect>
			  <text class="blocklyText" x="5" y="13">1</text>
			</g>
		      </g>
		      <g data-id="bMRZ|Xbg7$dY.tg{T9W1" style="display: block;" transform="translate(372.2920379638672,6)">
			<path class="blocklyPathDark" transform="translate(1,1)" fill="#e6e9fa" d=" m 8,0  h 28.151107788085938  v 5  H 36.15110778808594  V 5  H 36.15110778808594  V 21  H 36.15110778808594  V 21  V 25  h -28.151107788085938  H 8  V 20  c 0,-10  -8,8  -8,-7.5  s 8,2.5  8,-7.5 z
												   ">
			</path>
			<path class="blocklyPath" stroke="none" fill="#e6e9fa" d=" m 8,0  h 28.151107788085938  v 5  H 36.15110778808594  V 5  H 36.15110778808594  V 21  H 36.15110778808594  V 21  V 25  h -28.151107788085938  H 8  V 20  c 0,-10  -8,8  -8,-7.5  s 8,2.5  8,-7.5 z
										  ">
			</path>
			<path class="blocklyPathLight" stroke="#d4d9f6" d=" m 8,0  m 0.5,0.5  H 35.65110778808594  H 35.65110778808594  M 8.5,24.5  M 8.5,24.5  V 20  v -1.5  m -7.36,-0.5  q -1.52,-5.5  0,-11  m 7.36,1  V 0.5 
									   " style="display: none;">
			</path>
			<g class="blocklyEditableText" transform="translate(13,5)" style="cursor: text;">
			  <rect rx="4" ry="4" x="0" y="0" height="16" width="18.151107788085938" class="blocklyFieldRect">
			  </rect>
			  <text class="blocklyText" x="0" y="13">40</text>
			</g>
		      </g>
		      <g transform="translate(18,10)">
			<text class="blocklyText" x="0" y="13">⤴⚁</text>
		      </g>
		      <g transform="translate(53.0186767578125,10)">
			<text class="blocklyText" x="0" y="13">⌊</text>
		      </g>
		      <g transform="translate(123.03883361816406,10)">
			<text class="blocklyText" x="0" y="13">⌉</text>
		      </g>
		      <g transform="translate(209.3612060546875,10)">
			<text class="blocklyText" x="0" y="13">⤴</text>
		      </g>
		      <g transform="translate(290.02288818359375,10)">
			<text class="blocklyText" x="0" y="13">×</text>
		      </g>
		      <g transform="translate(354.73301696777344,10)">
			<text class="blocklyText" x="0" y="13">+</text>
		      </g>
		    </g>
		    <g data-id="!z{E^Z!,=~V)/4_a:FPz" class="blocklyDraggable" style="display: block;" transform="translate(44.0570068359375,111)">
		      <path class="blocklyPathDark" transform="translate(1,1)" fill="#9aa1c2" d=" m 8,0  h 28.151107788085938  v 5  H 36.15110778808594  V 5  H 36.15110778808594  V 21  H 36.15110778808594  V 21  V 25  h -28.151107788085938  H 8  V 20  c 0,-10  -8,8  -8,-7.5  s 8,2.5  8,-7.5 z
												 ">
		      </path>
		      <path class="blocklyPath" stroke="none" fill="#c1c9f2" d=" m 8,0  h 28.151107788085938  v 5  H 36.15110778808594  V 5  H 36.15110778808594  V 21  H 36.15110778808594  V 21  V 25  h -28.151107788085938  H 8  V 20  c 0,-10  -8,8  -8,-7.5  s 8,2.5  8,-7.5 z
										">
		      </path>
		      <path class="blocklyPathLight" stroke="#d4d9f6" d=" m 8,0  m 0.5,0.5  H 35.65110778808594  H 35.65110778808594  M 8.5,24.5  M 8.5,24.5  V 20  v -1.5  m -7.36,-0.5  q -1.52,-5.5  0,-11  m 7.36,1  V 0.5 
									 ">
		      </path>
		      <g class="blocklyEditableText" transform="translate(13,5)" style="cursor: text;">
			<rect rx="4" ry="4" x="0" y="0" height="16" width="18.151107788085938" class="blocklyFieldRect">
			</rect>
			<text class="blocklyText" x="5" y="13">1</text>
		      </g>
		    </g>
		    <g data-id="OmcNP46}*fnn+@0Y~fB7" class="blocklyDraggable" style="display: block;" transform="translate(44.0570068359375,137)">
		      <path class="blocklyPathDark" transform="translate(1,1)" fill="#9aa1c2" d=" m 8,0  h 40.37419128417969  v 5  H 48.37419128417969  V 5  H 48.37419128417969  V 21  H 48.37419128417969  V 21  V 25  h -40.37419128417969  H 8  V 20  c 0,-10  -8,8  -8,-7.5  s 8,2.5  8,-7.5 z
												 ">
		      </path>
		      <path class="blocklyPath" stroke="none" fill="#c1c9f2" d=" m 8,0  h 40.37419128417969  v 5  H 48.37419128417969  V 5  H 48.37419128417969  V 21  H 48.37419128417969  V 21  V 25  h -40.37419128417969  H 8  V 20  c 0,-10  -8,8  -8,-7.5  s 8,2.5  8,-7.5 z
										">
		      </path>
		      <path class="blocklyPathLight" stroke="#d4d9f6" d=" m 8,0  m 0.5,0.5  H 47.87419128417969  H 47.87419128417969  M 8.5,24.5  M 8.5,24.5  V 20  v -1.5  m -7.36,-0.5  q -1.52,-5.5  0,-11  m 7.36,1  V 0.5 
									 ">
		      </path>
		      <g class="blocklyEditableText" transform="translate(13,5)" style="cursor: text;">
			<rect rx="4" ry="4" x="0" y="0" height="16" width="30.374191284179688" class="blocklyFieldRect">
			</rect>
			<text class="blocklyText" x="5" y="13">0.5</text>
		      </g>
		    </g>
		    <g data-id="?uKpE9Zrp7|WTvoayANk" style="display: block;" transform="translate(44.0570068359375,163)">
		      <path class="blocklyPathDark" transform="translate(1,1)" fill="#e6e9fa" d=" m 8,0  h 28.151107788085938  v 5  H 36.15110778808594  V 5  H 36.15110778808594  V 21  H 36.15110778808594  V 21  V 25  h -28.151107788085938  H 8  V 20  c 0,-10  -8,8  -8,-7.5  s 8,2.5  8,-7.5 z
												 ">
		      </path>
		      <path class="blocklyPath" stroke="none" fill="#e6e9fa" d=" m 8,0  h 28.151107788085938  v 5  H 36.15110778808594  V 5  H 36.15110778808594  V 21  H 36.15110778808594  V 21  V 25  h -28.151107788085938  H 8  V 20  c 0,-10  -8,8  -8,-7.5  s 8,2.5  8,-7.5 z
										">
		      </path>
		      <path class="blocklyPathLight" stroke="#d4d9f6" d=" m 8,0  m 0.5,0.5  H 35.65110778808594  H 35.65110778808594  M 8.5,24.5  M 8.5,24.5  V 20  v -1.5  m -7.36,-0.5  q -1.52,-5.5  0,-11  m 7.36,1  V 0.5 
									 " style="display: none;">
		      </path>
		      <g class="blocklyEditableText" transform="translate(13,5)" style="cursor: text;">
			<rect rx="4" ry="4" x="0" y="0" height="16" width="18.151107788085938" class="blocklyFieldRect">
			</rect>
			<text class="blocklyText" x="5" y="13">0</text>
		      </g>
		    </g>
		    <g transform="translate(18,5)">
		      <text class="blocklyText" x="0" y="13">⋏ₜ</text>
		    </g>
		    <g transform="translate(18,31)">
		      <text class="blocklyText" x="0" y="13">∙</text>
		    </g>
		    <g transform="translate(18,79)">
		      <text class="blocklyText" x="0" y="13">ν</text>
		    </g>
		    <g transform="translate(18,116)">
		      <text class="blocklyText" x="0" y="13">↘</text>
		    </g>
		    <g transform="translate(18,142)">
		      <text class="blocklyText" x="0" y="13">×</text>
		    </g>
		    <g transform="translate(18,168)">
		      <text class="blocklyText" x="0" y="13">+</text>
		    </g>
		  </g>
		  <g transform="translate(18,5)">
		    <text class="blocklyText" x="0" y="13">λ</text>
		  </g>
		  <g transform="translate(18,31)">
		    <text class="blocklyText" x="0" y="13">←</text>
		  </g>
		</g>
		<g data-id="PK=8pzu0jG9d]cN*@~K}" class="blocklyDraggable" style="display: block;" transform="translate(37.15110778808594,241)">
		  <path class="blocklyPathDark" transform="translate(1,1)" fill="#9aa1c2" d=" m 8,0  h 36.302215576171875  v 5  H 44.302215576171875  V 5  H 44.302215576171875  V 21  H 44.302215576171875  V 21  V 25  h -36.302215576171875  H 8  V 20  c 0,-10  -8,8  -8,-7.5  s 8,2.5  8,-7.5 z
											     ">
		  </path>
		  <path class="blocklyPath" stroke="none" fill="#c1c9f2" d=" m 8,0  h 36.302215576171875  v 5  H 44.302215576171875  V 5  H 44.302215576171875  V 21  H 44.302215576171875  V 21  V 25  h -36.302215576171875  H 8  V 20  c 0,-10  -8,8  -8,-7.5  s 8,2.5  8,-7.5 z
									    ">
		  </path>
		  <path class="blocklyPathLight" stroke="#d4d9f6" d=" m 8,0  m 0.5,0.5  H 43.802215576171875  H 43.802215576171875  M 8.5,24.5  M 8.5,24.5  V 20  v -1.5  m -7.36,-0.5  q -1.52,-5.5  0,-11  m 7.36,1  V 0.5 
								     ">
		  </path>
		  <g class="blocklyEditableText" transform="translate(13,5)" style="cursor: text;">
		    <rect rx="4" ry="4" x="0" y="0" height="16" width="26.302215576171875" class="blocklyFieldRect">
		    </rect>
		    <text class="blocklyText" x="5" y="13">10</text>
		  </g>
		</g>
		<g transform="translate(18,5)">
		  <text class="blocklyText" x="0" y="13">!</text>
		</g>
		<g transform="translate(18,31)">
		  <text class="blocklyText" x="0" y="13">𝑓</text>
		</g>
		<g transform="translate(18,246)">
		  <text class="blocklyText" x="0" y="13">#</text>
		</g>
	      </g>
	      <g data-id="~yTi,TI7F}HHu/o_3|,8" style="display: block;" transform="translate(47.58509826660156,293)">
		<path class="blocklyPathDark" transform="translate(1,1)" fill="#e6e9fa" d=" m 8,0  h 28.151107788085938  v 5  H 36.15110778808594  V 5  H 36.15110778808594  V 21  H 36.15110778808594  V 21  V 25  h -28.151107788085938  H 8  V 20  c 0,-10  -8,8  -8,-7.5  s 8,2.5  8,-7.5 z
											   ">
		</path>
		<path class="blocklyPath" stroke="none" fill="#e6e9fa" d=" m 8,0  h 28.151107788085938  v 5  H 36.15110778808594  V 5  H 36.15110778808594  V 21  H 36.15110778808594  V 21  V 25  h -28.151107788085938  H 8  V 20  c 0,-10  -8,8  -8,-7.5  s 8,2.5  8,-7.5 z
									  ">
		</path>
		<path class="blocklyPathLight" stroke="#d4d9f6" d=" m 8,0  m 0.5,0.5  H 35.65110778808594  H 35.65110778808594  M 8.5,24.5  M 8.5,24.5  V 20  v -1.5  m -7.36,-0.5  q -1.52,-5.5  0,-11  m 7.36,1  V 0.5 
								   " style="display: none;">
		</path>
		<g class="blocklyEditableText" transform="translate(13,5)" style="cursor: text;">
		  <rect rx="4" ry="4" x="0" y="0" height="16" width="18.151107788085938" class="blocklyFieldRect">
		  </rect>
		  <text class="blocklyText" x="5" y="13">1</text>
		</g>
	      </g>
	      <g data-id="c5a/WKuWR4$CqI[Z96A$" style="display: block;" transform="translate(47.58509826660156,319)">
		<path class="blocklyPathDark" transform="translate(1,1)" fill="#e6e9fa" d=" m 8,0  h 28.151107788085938  v 5  H 36.15110778808594  V 5  H 36.15110778808594  V 21  H 36.15110778808594  V 21  V 25  h -28.151107788085938  H 8  V 20  c 0,-10  -8,8  -8,-7.5  s 8,2.5  8,-7.5 z
											   ">
		</path>
		<path class="blocklyPath" stroke="none" fill="#e6e9fa" d=" m 8,0  h 28.151107788085938  v 5  H 36.15110778808594  V 5  H 36.15110778808594  V 21  H 36.15110778808594  V 21  V 25  h -28.151107788085938  H 8  V 20  c 0,-10  -8,8  -8,-7.5  s 8,2.5  8,-7.5 z
									  ">
		</path>
		<path class="blocklyPathLight" stroke="#d4d9f6" d=" m 8,0  m 0.5,0.5  H 35.65110778808594  H 35.65110778808594  M 8.5,24.5  M 8.5,24.5  V 20  v -1.5  m -7.36,-0.5  q -1.52,-5.5  0,-11  m 7.36,1  V 0.5 
								   " style="display: none;">
		</path>
		<g class="blocklyEditableText" transform="translate(13,5)" style="cursor: text;">
		  <rect rx="4" ry="4" x="0" y="0" height="16" width="18.151107788085938" class="blocklyFieldRect">
		  </rect>
		  <text class="blocklyText" x="5" y="13">0</text>
		</g>
	      </g>
	      <g transform="translate(18,5)">
		<text class="blocklyText" x="0" y="13">◠₂</text>
	      </g>
	      <g transform="translate(18,31)">
		<text class="blocklyText" x="0" y="13">⟦∙⟧</text>
	      </g>
	      <g transform="translate(18,298)">
		<text class="blocklyText" x="0" y="13">×</text>
	      </g>
	      <g transform="translate(18,324)">
		<text class="blocklyText" x="0" y="13">+</text>
	      </g>
	    </g>
	    <g transform="translate(18,5)">
	      <text class="blocklyText" x="0" y="13">λ</text>
	    </g>
	    <g transform="translate(18,31)">
	      <text class="blocklyText" x="0" y="13">⍵</text>
	    </g>
	    <g transform="translate(18,57)">
	      <text class="blocklyText" x="0" y="13">←</text>
	    </g>
	  </g>
	  <g data-id="g{*}I@xSkz4m2`%`d`Bc" class="blocklyDraggable" transform="translate(0,397)">
	    <path class="blocklyPathDark" transform="translate(1,1)" fill="#c29ac2" d=" m 0,0  h 15  l 6,4  3,0  6,-4  h 9.271286010742188  v 5  H 39.27128601074219  V 5  H 39.27128601074219  c 0,10  -8,-8  -8,7.5  s 8,-2.5  8,7.5  v 12  H 39.27128601074219  V 32  V 36  h -31.271286010742188 a 8 8 0 0,1 -8,-8 z
										       ">
	    </path>
	    <path class="blocklyPath" stroke="none" fill="#f2c1f2" d=" m 0,0  h 15  l 6,4  3,0  6,-4  h 9.271286010742188  v 5  H 39.27128601074219  V 5  H 39.27128601074219  c 0,10  -8,-8  -8,7.5  s 8,-2.5  8,7.5  v 12  H 39.27128601074219  V 32  V 36  h -31.271286010742188 a 8 8 0 0,1 -8,-8 z
								      ">
	    </path>
	    <path class="blocklyPathLight" stroke="#f6d4f6" d=" m 0,0  m 0.5,0.5  H 14.5  h 0.5  l 6,4  3,0  6,-4  H 38.77128601074219  H 38.77128601074219  M 39.27128601074219,5  m -5,14.3  l 3.68,-2.1  M 0,36  m 2.6966991411008934,-2.6966991411008934 a 7.5 7.5 0 0,1 -2.1966991411008934,-5.303300858899107  V 0.5 
							       ">
	    </path>
	    <g data-id="hU.3kaa9z~`JVJlcKej0" style="display: block;" class="blocklyDraggable" transform="translate(32.27128601074219,0)">
	      <path class="blocklyPathDark" transform="translate(1,1)" fill="#9ac2c2" d=" m 8,0  h 245.42750549316406  v 5  H 253.42750549316406  V 5  H 253.42750549316406  V 32  H 253.42750549316406  V 32  V 36  h -245.42750549316406  H 8  V 20  c 0,-10  -8,8  -8,-7.5  s 8,2.5  8,-7.5 z
											 M 66.33619689941406,5  v 5  c 0,10  -8,-8  -8,7.5  s 8,-2.5  8,7.5  v 7  h 37.500701904296875  v -27 z M 144.84495544433594,5  v 5  c 0,10  -8,-8  -8,7.5  s 8,-2.5  8,7.5  v 7  h 30.151107788085938  v -27 z M 213.27639770507812,5  v 5  c 0,10  -8,-8  -8,7.5  s 8,-2.5  8,7.5  v 7  h 30.151107788085938  v -27 z">
	      </path>
	      <path class="blocklyPath" stroke="none" fill="#c1f2f2" d=" m 8,0  h 245.42750549316406  v 5  H 253.42750549316406  V 5  H 253.42750549316406  V 32  H 253.42750549316406  V 32  V 36  h -245.42750549316406  H 8  V 20  c 0,-10  -8,8  -8,-7.5  s 8,2.5  8,-7.5 z
									M 66.33619689941406,5  v 5  c 0,10  -8,-8  -8,7.5  s 8,-2.5  8,7.5  v 7  h 37.500701904296875  v -27 z M 144.84495544433594,5  v 5  c 0,10  -8,-8  -8,7.5  s 8,-2.5  8,7.5  v 7  h 30.151107788085938  v -27 z M 213.27639770507812,5  v 5  c 0,10  -8,-8  -8,7.5  s 8,-2.5  8,7.5  v 7  h 30.151107788085938  v -27 z">
	      </path>
	      <path class="blocklyPathLight" stroke="#d4f6f6" d=" m 8,0  m 0.5,0.5  H 252.92750549316406  H 252.92750549316406  M 8.5,35.5  M 8.5,35.5  V 20  v -1.5  m -7.36,-0.5  q -1.52,-5.5  0,-11  m 7.36,1  V 0.5 
								 M 104.33689880371094,5.5  v 27  h -37.500701904296875  M 66.33619689941406,10  m -5,14.3  l 3.68,-2.1  M 175.49606323242188,5.5  v 27  h -30.151107788085938  M 144.84495544433594,10  m -5,14.3  l 3.68,-2.1  M 243.92750549316406,5.5  v 27  h -30.151107788085938  M 213.27639770507812,10  m -5,14.3  l 3.68,-2.1 ">
	      </path>
	      <g data-id="Xm^GeoJ/#/+o(Wz{VA5," class="blocklyDraggable" style="display: block;" transform="translate(59.33619689941406,6)">
		<path class="blocklyPathDark" transform="translate(1,1)" fill="#c29aae" d=" m 8,0  h 35.500701904296875  v 5  H 43.500701904296875  V 5  H 43.500701904296875  V 21  H 43.500701904296875  V 21  V 25  h -35.500701904296875  H 8  V 20  c 0,-10  -8,8  -8,-7.5  s 8,2.5  8,-7.5 z
											   ">
		</path>
		<path class="blocklyPath" stroke="none" fill="#f2c1da" d=" m 8,0  h 35.500701904296875  v 5  H 43.500701904296875  V 5  H 43.500701904296875  V 21  H 43.500701904296875  V 21  V 25  h -35.500701904296875  H 8  V 20  c 0,-10  -8,8  -8,-7.5  s 8,2.5  8,-7.5 z
									  ">
		</path>
		<path class="blocklyPathLight" stroke="#f6d4e5" d=" m 8,0  m 0.5,0.5  H 43.000701904296875  H 43.000701904296875  M 8.5,24.5  M 8.5,24.5  V 20  v -1.5  m -7.36,-0.5  q -1.52,-5.5  0,-11  m 7.36,1  V 0.5 
								   ">
		</path>
		<g class="blocklyEditableText" transform="translate(13,5)" style="cursor: default;">
		  <rect rx="4" ry="4" x="0" y="0" height="16" width="25.500701904296875" class="blocklyFieldRect blocklyDropdownRect" stroke="#f6d4e5" fill="transparent">
		  </rect>
		  <text class="blocklyText blocklyDropdownText" text-anchor="start" x="5" y="13">f<tspan style="fill: rgb(242, 193, 218);"> ▾</tspan>
		  </text>
		  <image style="display: none;">
		  </image>
		</g>
	      </g>
	      <g data-id="Lrs%M{-TgLn`oRBpDd0f" style="display: block;" transform="translate(137.84495544433594,6)">
		<path class="blocklyPathDark" transform="translate(1,1)" fill="#e6e9fa" d=" m 8,0  h 28.151107788085938  v 5  H 36.15110778808594  V 5  H 36.15110778808594  V 21  H 36.15110778808594  V 21  V 25  h -28.151107788085938  H 8  V 20  c 0,-10  -8,8  -8,-7.5  s 8,2.5  8,-7.5 z
											   ">
		</path>
		<path class="blocklyPath" stroke="none" fill="#e6e9fa" d=" m 8,0  h 28.151107788085938  v 5  H 36.15110778808594  V 5  H 36.15110778808594  V 21  H 36.15110778808594  V 21  V 25  h -28.151107788085938  H 8  V 20  c 0,-10  -8,8  -8,-7.5  s 8,2.5  8,-7.5 z
									  ">
		</path>
		<path class="blocklyPathLight" stroke="#d4d9f6" d=" m 8,0  m 0.5,0.5  H 35.65110778808594  H 35.65110778808594  M 8.5,24.5  M 8.5,24.5  V 20  v -1.5  m -7.36,-0.5  q -1.52,-5.5  0,-11  m 7.36,1  V 0.5 
								   " style="display: none;">
		</path>
		<g class="blocklyEditableText" transform="translate(13,5)" style="cursor: text;">
		  <rect rx="4" ry="4" x="0" y="0" height="16" width="18.151107788085938" class="blocklyFieldRect">
		  </rect>
		  <text class="blocklyText" x="5" y="13">4</text>
		</g>
	      </g>
	      <g data-id="=ic_}*He;#^Mx1;FwbT5" style="display: block;" transform="translate(206.27639770507812,6)">
		<path class="blocklyPathDark" transform="translate(1,1)" fill="#e6e9fa" d=" m 8,0  h 28.151107788085938  v 5  H 36.15110778808594  V 5  H 36.15110778808594  V 21  H 36.15110778808594  V 21  V 25  h -28.151107788085938  H 8  V 20  c 0,-10  -8,8  -8,-7.5  s 8,2.5  8,-7.5 z
											   ">
		</path>
		<path class="blocklyPath" stroke="none" fill="#e6e9fa" d=" m 8,0  h 28.151107788085938  v 5  H 36.15110778808594  V 5  H 36.15110778808594  V 21  H 36.15110778808594  V 21  V 25  h -28.151107788085938  H 8  V 20  c 0,-10  -8,8  -8,-7.5  s 8,2.5  8,-7.5 z
									  ">
		</path>
		<path class="blocklyPathLight" stroke="#d4d9f6" d=" m 8,0  m 0.5,0.5  H 35.65110778808594  H 35.65110778808594  M 8.5,24.5  M 8.5,24.5  V 20  v -1.5  m -7.36,-0.5  q -1.52,-5.5  0,-11  m 7.36,1  V 0.5 
								   " style="display: none;">
		</path>
		<g class="blocklyEditableText" transform="translate(13,5)" style="cursor: text;">
		  <rect rx="4" ry="4" x="0" y="0" height="16" width="18.151107788085938" class="blocklyFieldRect">
		  </rect>
		  <text class="blocklyText" x="5" y="13">4</text>
		</g>
	      </g>
	      <g transform="translate(18,10)">
		<text class="blocklyText" x="0" y="13">ᨏ</text>
	      </g>
	      <g transform="translate(46.261749267578125,10)">
		<text class="blocklyText" x="0" y="13">𝑓</text>
	      </g>
	      <g transform="translate(113.83689880371094,10)">
		<text class="blocklyText" x="0" y="13">⌒</text>
	      </g>
	      <g transform="translate(184.99606323242188,10)">
		<text class="blocklyText" x="0" y="13">⤢</text>
	      </g>
	    </g>
	    <g transform="translate(10,5)">
	      <text class="blocklyText" x="0" y="13">▷</text>
	    </g>
	  </g>
	  <g class="blocklyEditableText" transform="translate(5,5)" style="cursor: default;">
	    <rect rx="4" ry="4" x="0" y="0" height="16" width="25.500701904296875" class="blocklyFieldRect blocklyDropdownRect" stroke="#f6d4e5" fill="transparent">
	    </rect>
	    <text class="blocklyText blocklyDropdownText" text-anchor="start" x="5" y="13">f<tspan style="fill: rgb(242, 193, 218);"> ▾</tspan>
	    </text>
	    <image style="display: none;">
	    </image>
	  </g>
	  <g transform="translate(35.500701904296875,5)">
	    <text class="blocklyText" x="0" y="13">≔</text>
	  </g>
	</g>
	<g transform="translate(10,5)">
	  <text class="blocklyText" x="0" y="13">“</text>
	</g>
	<g class="blocklyEditableText" transform="translate(19.880645751953125,5)" style="cursor: text;">
	  <rect rx="4" ry="4" x="0" y="0" height="16" width="119.97196960449219" class="blocklyFieldRect">
	  </rect>
	  <text class="blocklyText" x="5" y="13">coolant ; jmcc #2</text>
	</g>
      </g>
    </g>
  </g>
</svg>
